<?xml version="1.0" standalone="no"?><!DOCTYPE svg PUBLIC "-//W3C//DTD SVG 1.1//EN" "http://www.w3.org/Graphics/SVG/1.1/DTD/svg11.dtd"><svg t="1543723558331" class="icon" style="" viewBox="0 0 1024 1024" version="1.1" xmlns="http://www.w3.org/2000/svg" p-id="1886" xmlns:xlink="http://www.w3.org/1999/xlink" width="200" height="200"><defs><style type="text/css"></style></defs><path d="M946.704573 557.137076h-50.833674v423.694645a43.23283 43.23283 0 0 1-43.248968 43.168279h-182.839853a43.23283 43.23283 0 0 1-43.248967-43.168279v-423.694645h-228.267407v423.694645a43.23283 43.23283 0 0 1-43.248967 43.168279h-182.839853a43.168279 43.168279 0 0 1-43.168279-43.168279v-423.694645h-51.721247a55.553945 55.553945 0 0 1-39.779368-94.324708l434.668264-446.045324a55.578151 55.578151 0 0 1 79.558735 0l434.748952 446.045324a55.553945 55.553945 0 0 1-39.779368 94.324708z" fill="#969BA1" p-id="1887"></path></svg>