<?xml version="1.0" standalone="no"?><!DOCTYPE svg PUBLIC "-//W3C//DTD SVG 1.1//EN" "http://www.w3.org/Graphics/SVG/1.1/DTD/svg11.dtd"><svg t="1543723597107" class="icon" style="" viewBox="0 0 1024 1024" version="1.1" xmlns="http://www.w3.org/2000/svg" p-id="3537" xmlns:xlink="http://www.w3.org/1999/xlink" width="200" height="200"><defs><style type="text/css"></style></defs><path d="M376.32 506.368c-121.344-84.48-151.552-250.88-67.584-372.736S559.616-17.92 681.472 66.048s151.552 250.88 67.584 372.736c-20.992 30.208-47.616 55.296-78.336 74.752 190.464 65.536 326.656 246.272 326.656 458.752 0 18.432-14.848 33.28-33.28 33.28s-33.28-14.848-33.28-33.28c0-230.912-187.392-418.304-418.304-418.304S94.208 741.376 94.208 972.288c0 18.432-14.848 33.28-33.28 33.28s-33.28-14.848-33.28-33.28C26.624 751.104 174.08 564.736 376.32 506.368z m152.576-19.456C640 486.912 729.6 396.8 729.6 286.208S639.488 85.504 528.896 85.504s-201.216 89.6-201.216 200.704 90.112 200.704 201.216 200.704z" fill="" p-id="3538"></path></svg>